<?xml version="1.0" standalone="no"?><!DOCTYPE svg PUBLIC "-//W3C//DTD SVG 1.1//EN" "http://www.w3.org/Graphics/SVG/1.1/DTD/svg11.dtd"><svg class="icon" width="200px" height="200.00px" viewBox="0 0 1024 1024" version="1.1" xmlns="http://www.w3.org/2000/svg"><path d="M498.5 883.29c-50.32 0-99.14-9.86-145.11-29.3-44.39-18.78-84.26-45.65-118.49-79.88-34.23-34.23-61.11-74.09-79.88-118.49-19.45-45.97-29.3-94.8-29.3-145.11s9.86-99.14 29.3-145.11c18.78-44.39 45.65-84.26 79.88-118.49 34.23-34.23 74.09-61.11 118.49-79.88 45.97-19.45 94.8-29.3 145.11-29.3s99.14 9.86 145.11 29.3c44.39 18.78 84.26 45.65 118.49 79.88 34.23 34.23 61.11 74.09 79.88 118.49 19.45 45.97 29.3 94.8 29.3 145.11s-9.86 99.14-29.3 145.11c-18.78 44.39-45.65 84.26-79.88 118.49-34.23 34.23-74.09 61.11-118.49 79.88-45.97 19.45-94.8 29.3-145.11 29.3z m0-700.58c-87.56 0-169.87 34.1-231.78 96.01s-96.01 144.23-96.01 231.78 34.1 169.87 96.01 231.78 144.23 96.01 231.78 96.01 169.87-34.1 231.78-96.01 96.01-144.23 96.01-231.78-34.1-169.87-96.01-231.78-144.23-96.01-231.78-96.01zM340.61 713.8c-11.77 0-23.2-4.64-31.98-13.42-12.91-12.91-16.86-31.52-10.3-48.56l75.35-195.88c12.35-32.09 37.83-57.57 69.92-69.92l196.86-75.73c16.87-6.49 35.29-2.58 48.07 10.2s16.69 31.2 10.2 48.07l-75.93 197.4c-12.21 31.75-37.42 56.96-69.17 69.17l-196.42 75.56c-5.45 2.09-11.05 3.12-16.58 3.12z m0.16-45.02z m315.89-316.51s-0.03 0.01-0.05 0.02l-196.86 75.73c-20.23 7.78-36.29 23.85-44.08 44.07l-75.35 195.88c-0.09 0.22-0.09 0.32-0.09 0.32 0.04 0.12 0.34 0.42 0.52 0.48 0 0 0.11-0.03 0.28-0.09l196.42-75.56c19.88-7.65 35.67-23.44 43.32-43.33l75.93-197.4s0.01-0.04 0.02-0.05a0.304 0.304 0 0 0-0.08-0.08z" fill="#333333" /><path d="M498.5 510.5m-41 0a41 41 0 1 0 82 0 41 41 0 1 0-82 0Z" fill="#333333" /></svg>