<?xml version="1.0" standalone="no"?><!DOCTYPE svg PUBLIC "-//W3C//DTD SVG 1.1//EN" "http://www.w3.org/Graphics/SVG/1.1/DTD/svg11.dtd"><svg class="icon" width="200px" height="200.00px" viewBox="0 0 1024 1024" version="1.1" xmlns="http://www.w3.org/2000/svg"><path d="M745.13 808.36H239.76c-34.02 0-65.61-13.62-88.97-38.35s-35.14-57.06-33.2-91.02l23.8-414.92c3.71-64.68 57.37-115.35 122.16-115.35h457.77c64.79 0 118.45 50.67 122.16 115.35l23.8 414.92c1.95 33.96-9.84 66.28-33.19 91.02-23.35 24.73-54.95 38.35-88.97 38.35zM263.56 193.72c-40.96 0-74.89 32.04-77.24 72.93l-23.8 414.92c-1.23 21.47 6.22 41.91 20.99 57.54s34.74 24.25 56.25 24.25h505.37c21.51 0 41.48-8.61 56.25-24.25 14.77-15.64 22.22-36.07 20.99-57.54l-23.8-414.92c-2.35-40.9-36.27-72.93-77.24-72.93H263.56z" fill="#333333" /><path d="M489.82 541.76c-85.84 0-155.68-69.84-155.68-155.68v-67.37c0-12.43 10.07-22.5 22.5-22.5s22.5 10.07 22.5 22.5v67.37c0 61.03 49.65 110.68 110.68 110.68s115.93-52.01 115.93-115.93v-56.87c0-12.43 10.07-22.5 22.5-22.5s22.5 10.07 22.5 22.5v56.87c0 88.74-72.19 160.93-160.93 160.93z" fill="#333333" /></svg>