<?xml version="1.0" standalone="no"?><!DOCTYPE svg PUBLIC "-//W3C//DTD SVG 1.1//EN" "http://www.w3.org/Graphics/SVG/1.1/DTD/svg11.dtd"><svg class="icon" width="200px" height="200.00px" viewBox="0 0 1024 1024" version="1.1" xmlns="http://www.w3.org/2000/svg"><path d="M698 531.58H325.48c-12.43 0-22.5-10.07-22.5-22.5s10.07-22.5 22.5-22.5H698c12.43 0 22.5 10.07 22.5 22.5s-10.07 22.5-22.5 22.5zM484 378.5H325.63c-12.43 0-22.5-10.07-22.5-22.5s10.07-22.5 22.5-22.5H484c12.43 0 22.5 10.07 22.5 22.5s-10.07 22.5-22.5 22.5zM694.66 684.67H322.14c-12.43 0-22.5-10.07-22.5-22.5s10.07-22.5 22.5-22.5h372.52c12.43 0 22.5 10.07 22.5 22.5s-10.07 22.5-22.5 22.5z" fill="#333333" /><path d="M736.2 866.69H282.72c-59.21 0-107.38-48.17-107.38-107.38V230.53c0-59.21 48.17-107.38 107.38-107.38H606.2c5.97 0 11.69 2.37 15.91 6.59l214.88 214.88c4.22 4.22 6.59 9.94 6.59 15.91v398.79c0 59.21-48.17 107.38-107.38 107.38zM282.72 168.15c-34.39 0-62.38 27.98-62.38 62.38v528.79c0 34.39 27.98 62.38 62.38 62.38H736.2c34.39 0 62.38-27.98 62.38-62.38V369.85l-201.7-201.69H282.72z" fill="#333333" /><path d="M820.5 380.5H671.56c-49.11 0-89.06-39.4-89.06-87.82V146.5c0-9.06 5.44-17.24 13.79-20.75 8.35-3.51 18-1.66 24.47 4.69l215.5 211.5c6.52 6.4 8.52 16.11 5.07 24.57a22.506 22.506 0 0 1-20.83 13.99z m-193-180.39v92.57c0 23.61 19.77 42.82 44.06 42.82h93.89L627.5 200.11z" fill="#333333" /></svg>