<?xml version="1.0" standalone="no"?><!DOCTYPE svg PUBLIC "-//W3C//DTD SVG 1.1//EN" "http://www.w3.org/Graphics/SVG/1.1/DTD/svg11.dtd"><svg class="icon" width="200px" height="200.00px" viewBox="0 0 1024 1024" version="1.1" xmlns="http://www.w3.org/2000/svg"><path d="M781.73 825.5H222.27c-67.82 0-123-55.18-123-123V402.41c0-67.82 55.18-123 123-123h85.25c10.33 0 19.26-7.36 21.24-17.5l6.22-31.91c5.14-26.37 28.36-45.51 55.23-45.51H613.8c26.86 0 50.09 19.14 55.23 45.51l6.22 31.91c1.98 10.14 10.91 17.5 21.24 17.5h85.25c67.82 0 123 55.18 123 123V702.5c0 67.82-55.18 123-123 123zM222.27 324.42c-43.01 0-78 34.99-78 78v300.09c0 43.01 34.99 78 78 78h559.46c43.01 0 78-34.99 78-78v-300.1c0-43.01-34.99-78-78-78h-85.25c-31.82 0-59.33-22.67-65.41-53.9l-6.22-31.91a11.287 11.287 0 0 0-11.06-9.11H390.2c-5.38 0-10.03 3.83-11.06 9.11l-6.22 31.91c-6.08 31.23-33.59 53.9-65.41 53.9h-85.25zM502.25 726.5c-102.29 0-185.5-83.21-185.5-185.5s83.21-185.5 185.5-185.5 185.5 83.21 185.5 185.5-83.21 185.5-185.5 185.5z m0-326c-77.47 0-140.5 63.03-140.5 140.5s63.03 140.5 140.5 140.5 140.5-63.03 140.5-140.5-63.03-140.5-140.5-140.5z" fill="#333333" /><path d="M759 420m-34 0a34 34 0 1 0 68 0 34 34 0 1 0-68 0Z" fill="#333333" /></svg>