<?xml version="1.0" standalone="no"?><!DOCTYPE svg PUBLIC "-//W3C//DTD SVG 1.1//EN" "http://www.w3.org/Graphics/SVG/1.1/DTD/svg11.dtd"><svg class="icon" width="200px" height="200.00px" viewBox="0 0 1024 1024" version="1.1" xmlns="http://www.w3.org/2000/svg"><path d="M305.52 616.74c-61.61 0-111.74-50.13-111.74-111.74s50.13-111.74 111.74-111.74S417.26 443.39 417.26 505s-50.13 111.74-111.74 111.74z m0-178.48c-36.8 0-66.74 29.94-66.74 66.74s29.94 66.74 66.74 66.74 66.74-29.94 66.74-66.74-29.94-66.74-66.74-66.74zM688.48 351.98c-61.61 0-111.74-50.13-111.74-111.74S626.87 128.5 688.48 128.5s111.74 50.13 111.74 111.74-50.13 111.74-111.74 111.74z m0-178.48c-36.8 0-66.74 29.94-66.74 66.74s29.94 66.74 66.74 66.74 66.74-29.94 66.74-66.74-29.94-66.74-66.74-66.74zM688.48 881.5c-61.61 0-111.74-50.13-111.74-111.74s50.13-111.74 111.74-111.74 111.74 50.13 111.74 111.74S750.09 881.5 688.48 881.5z m0-178.48c-36.8 0-66.74 29.94-66.74 66.74s29.94 66.74 66.74 66.74 66.74-29.94 66.74-66.74-29.94-66.74-66.74-66.74z" fill="#333333" /><path d="M394.78 466.04c-7.37 0-14.59-3.61-18.9-10.26-6.76-10.42-3.8-24.36 6.63-31.12l225.2-146.12c10.42-6.76 24.36-3.8 31.12 6.63 6.76 10.42 3.8 24.36-6.63 31.12L407 462.41a22.436 22.436 0 0 1-12.23 3.63zM599.22 738.21c-4.1 0-8.24-1.12-11.96-3.46L355.13 588.63c-10.52-6.62-13.68-20.51-7.06-31.03s20.51-13.68 31.03-7.05l232.13 146.12c10.52 6.62 13.68 20.51 7.06 31.03-4.28 6.79-11.59 10.52-19.06 10.52z" fill="#333333" /></svg>