<?xml version="1.0" standalone="no"?><!DOCTYPE svg PUBLIC "-//W3C//DTD SVG 1.1//EN" "http://www.w3.org/Graphics/SVG/1.1/DTD/svg11.dtd"><svg class="icon" width="200px" height="200.00px" viewBox="0 0 1024 1024" version="1.1" xmlns="http://www.w3.org/2000/svg"><path d="M378.2 485.29H260.3c-57.52 0-104.31-46.79-104.31-104.31v-117.9c0-57.52 46.79-104.31 104.31-104.31h117.9c57.52 0 104.31 46.79 104.31 104.31v117.9c0 57.52-46.79 104.31-104.31 104.31zM260.3 203.77c-32.7 0-59.31 26.61-59.31 59.31v117.9c0 32.7 26.61 59.31 59.31 59.31h117.9c32.7 0 59.31-26.61 59.31-59.31v-117.9c0-32.7-26.61-59.31-59.31-59.31H260.3zM765.19 485.29h-117.9c-57.52 0-104.31-46.79-104.31-104.31v-117.9c0-57.52 46.79-104.31 104.31-104.31h117.9c57.52 0 104.31 46.79 104.31 104.31v117.9c0 57.52-46.79 104.31-104.31 104.31z m-117.9-281.52c-32.7 0-59.31 26.61-59.31 59.31v117.9c0 32.7 26.61 59.31 59.31 59.31h117.9c32.7 0 59.31-26.61 59.31-59.31v-117.9c0-32.7-26.61-59.31-59.31-59.31h-117.9zM378.2 868.23H260.3c-57.52 0-104.31-46.79-104.31-104.31v-117.9c0-57.52 46.79-104.31 104.31-104.31h117.9c57.52 0 104.31 46.79 104.31 104.31v117.9c0 57.52-46.79 104.31-104.31 104.31zM260.3 586.71c-32.7 0-59.31 26.61-59.31 59.31v117.9c0 32.7 26.61 59.31 59.31 59.31h117.9c32.7 0 59.31-26.61 59.31-59.31v-117.9c0-32.7-26.61-59.31-59.31-59.31H260.3zM765.19 868.23h-117.9c-57.52 0-104.31-46.79-104.31-104.31v-117.9c0-57.52 46.79-104.31 104.31-104.31h117.9c57.52 0 104.31 46.79 104.31 104.31v117.9c0 57.52-46.79 104.31-104.31 104.31z m-117.9-281.52c-32.7 0-59.31 26.61-59.31 59.31v117.9c0 32.7 26.61 59.31 59.31 59.31h117.9c32.7 0 59.31-26.61 59.31-59.31v-117.9c0-32.7-26.61-59.31-59.31-59.31h-117.9z" fill="#333333" /></svg>