<?xml version="1.0" standalone="no"?><!DOCTYPE svg PUBLIC "-//W3C//DTD SVG 1.1//EN" "http://www.w3.org/Graphics/SVG/1.1/DTD/svg11.dtd"><svg class="icon" width="200px" height="200.00px" viewBox="0 0 1024 1024" version="1.1" xmlns="http://www.w3.org/2000/svg"><path d="M516.29 863.63c-88.16 0-171.05-34.33-233.39-96.67-62.34-62.34-96.67-145.23-96.67-233.39s34.33-171.05 96.67-233.39c62.34-62.34 145.23-96.67 233.39-96.67s171.05 34.33 233.39 96.67c62.34 62.34 96.67 145.23 96.67 233.39s-34.33 171.05-96.67 233.39c-62.34 62.34-145.23 96.67-233.39 96.67z m0-615.13c-76.14 0-147.73 29.65-201.57 83.49-53.84 53.84-83.49 125.43-83.49 201.57s29.65 147.73 83.49 201.57c53.84 53.84 125.43 83.49 201.57 83.49s147.73-29.65 201.57-83.49c53.84-53.84 83.49-125.43 83.49-201.57s-29.65-147.73-83.49-201.57c-53.84-53.84-125.43-83.49-201.57-83.49z" fill="#333333" /><path d="M423.87 641.5c-6.43 0-12.82-2.74-17.27-8.06-7.98-9.53-6.72-23.72 2.81-31.7l87.58-73.3V344.49c0-12.43 10.07-22.5 22.5-22.5s22.5 10.07 22.5 22.5v185.48c0 12.39-5.45 24.05-14.95 32.01l-88.75 74.27a22.449 22.449 0 0 1-14.43 5.25zM190.98 286.23c-5.76 0-11.52-2.2-15.91-6.59-8.79-8.79-8.79-23.03 0-31.82l68.83-68.83c8.79-8.79 23.03-8.79 31.82 0s8.79 23.03 0 31.82l-68.83 68.83a22.435 22.435 0 0 1-15.91 6.59z" fill="#333333" /><path d="M287.27 313.69c-5.76 0-11.52-2.2-15.91-6.59l-56.92-56.92c-8.79-8.79-8.79-23.03 0-31.82s23.03-8.79 31.82 0l56.92 56.92c8.79 8.79 8.79 23.03 0 31.82a22.435 22.435 0 0 1-15.91 6.59zM842.27 286.23c-5.76 0-11.52-2.2-15.91-6.59l-68.83-68.83c-8.79-8.79-8.79-23.03 0-31.82s23.03-8.79 31.82 0l68.83 68.83c8.79 8.79 8.79 23.03 0 31.82a22.435 22.435 0 0 1-15.91 6.59z" fill="#333333" /><path d="M745.98 313.69c-5.76 0-11.52-2.2-15.91-6.59-8.79-8.79-8.79-23.03 0-31.82l56.92-56.92c8.79-8.79 23.03-8.79 31.82 0s8.79 23.03 0 31.82l-56.92 56.92a22.435 22.435 0 0 1-15.91 6.59z" fill="#333333" /></svg>