<?xml version="1.0" standalone="no"?><!DOCTYPE svg PUBLIC "-//W3C//DTD SVG 1.1//EN" "http://www.w3.org/Graphics/SVG/1.1/DTD/svg11.dtd"><svg class="icon" width="200px" height="200.00px" viewBox="0 0 1024 1024" version="1.1" xmlns="http://www.w3.org/2000/svg"><path d="M377.25 814.66H214.46c-41.23 0-74.77-33.54-74.77-74.77V439.46c0-41.23 33.54-74.77 74.77-74.77h162.79v449.97zM214.46 409.68c-16.42 0-29.77 13.36-29.77 29.77v300.43c0 16.42 13.36 29.77 29.77 29.77h117.79V409.68H214.46z" fill="#333333" /><path d="M763.99 814.66H331.25V364.68h45.11c13.09 0 25.52-6.3 33.25-16.86l127.98-174.71c20.32-27.74 55.36-37.63 87.19-24.61 31.83 13.02 49.89 44.63 44.94 78.66l-17.27 118.78c-0.94 6.45 1.99 10.96 3.82 13.08 1.83 2.12 5.87 5.67 12.39 5.67h135.42a61.45 61.45 0 0 1 46 20.72 61.485 61.485 0 0 1 14.97 48.17l-40.09 327.14c-3.77 30.76-29.98 53.95-60.96 53.95z m-387.74-45h387.74c8.28 0 15.29-6.2 16.3-14.42l40.09-327.14c0.78-6.39-2.17-10.81-4-12.88s-5.86-5.54-12.3-5.54H668.66c-17.83 0-34.76-7.74-46.42-21.22a61.337 61.337 0 0 1-14.32-49l17.27-118.78c2.37-16.29-7.46-26.45-17.45-30.54-9.99-4.09-24.12-3.72-33.85 9.56L445.91 374.41c-16.18 22.08-42.18 35.27-69.55 35.27h-0.11v359.97z" fill="#333333" /></svg>