<?xml version="1.0" standalone="no"?><!DOCTYPE svg PUBLIC "-//W3C//DTD SVG 1.1//EN" "http://www.w3.org/Graphics/SVG/1.1/DTD/svg11.dtd"><svg class="icon" width="200px" height="200.00px" viewBox="0 0 1024 1024" version="1.1" xmlns="http://www.w3.org/2000/svg"><path d="M496.96 871.87c-46.9 0-92.62-8.9-135.89-26.45-44.81-18.17-85.01-44.86-119.48-79.33s-61.16-74.67-79.33-119.48c-17.55-43.28-26.45-89-26.45-135.89s8.9-92.62 26.45-135.89c18.17-44.81 44.86-85.01 79.33-119.48s74.67-61.16 119.48-79.33c43.27-17.55 89-26.45 135.89-26.45s92.62 8.9 135.89 26.45c44.81 18.17 85.01 44.86 119.48 79.33s61.16 74.67 79.33 119.48c17.55 43.27 26.45 88.99 26.45 135.89s-8.9 92.62-26.45 135.89c-18.17 44.81-44.86 85.01-79.33 119.48s-74.67 61.16-119.48 79.33c-43.27 17.55-88.99 26.45-135.89 26.45z m0-677.3c-84.45 0-163.84 32.89-223.55 92.6-59.71 59.71-92.6 139.1-92.6 223.55s32.89 163.84 92.6 223.55 139.11 92.6 223.55 92.6 163.84-32.89 223.55-92.6c59.71-59.71 92.6-139.11 92.6-223.55s-32.89-163.84-92.6-223.55c-59.71-59.71-139.11-92.6-223.55-92.6z" fill="#333333" /><path d="M496.5 510.72m-41 0a41 41 0 1 0 82 0 41 41 0 1 0-82 0Z" fill="#333333" /><path d="M333 511m-41 0a41 41 0 1 0 82 0 41 41 0 1 0-82 0Z" fill="#333333" /><path d="M660 511m-41 0a41 41 0 1 0 82 0 41 41 0 1 0-82 0Z" fill="#333333" /></svg>