<?xml version="1.0" standalone="no"?><!DOCTYPE svg PUBLIC "-//W3C//DTD SVG 1.1//EN" "http://www.w3.org/Graphics/SVG/1.1/DTD/svg11.dtd"><svg class="icon" width="200px" height="200.00px" viewBox="0 0 1024 1024" version="1.1" xmlns="http://www.w3.org/2000/svg"><path d="M580.77 802.74c-8.44 0-17.01-1.7-25.29-5.18-24.31-10.21-39.42-32.94-39.42-59.31v-87.99c-89.39-0.57-159.49 17.89-202.96 33.68-48.39 17.58-75.21 35.78-75.48 35.96l-0.97 0.67-0.99 0.54c-16.8 9.2-33.52 13.75-49.21 13.75-21.72 0-41.45-8.71-56.69-25.84-31.66-35.59-13.23-85.37-9.83-93.65 18.89-54.98 48.24-104.11 87.22-146.06 32.59-35.07 72.19-65.41 117.69-90.19 75.43-41.08 149.77-57.76 191.21-64.33v-74.71c0-26.37 15.1-49.1 39.42-59.31 24.31-10.21 51.11-5.09 69.95 13.37l228.19 223.72c19.31 18.93 29.95 44.26 29.95 71.31s-10.64 52.37-29.95 71.31L625.42 784.2c-12.42 12.18-28.31 18.55-44.66 18.55z m-56.8-197.43c9.36 0 18.48 3.57 25.35 10 7.46 6.98 11.74 16.85 11.74 27.07v95.88c0 11.92 9.07 16.65 11.84 17.82s12.51 4.33 21.02-4.02l228.19-223.72c10.61-10.4 16.45-24.31 16.45-39.17s-5.84-28.77-16.45-39.17L593.92 226.28c-8.51-8.34-18.24-5.19-21.02-4.02-2.78 1.17-11.84 5.9-11.84 17.82v81.53c0 18.28-13.64 34.05-31.72 36.68-36.74 5.34-109.36 20.27-182.97 60.35-91.03 49.57-152.97 120.9-184.11 212.01l-0.36 1.06-0.33 0.72c-0.58 1.41-12.26 30.86 1.81 46.68 11.86 13.33 28.62 14.34 49.82 3 6.01-3.98 34.66-22.14 82.69-39.78 48.32-17.74 126.82-38.55 226.79-36.99 0.43-0.02 0.86-0.02 1.29-0.02z" fill="#333333" /></svg>