<?xml version="1.0" standalone="no"?><!DOCTYPE svg PUBLIC "-//W3C//DTD SVG 1.1//EN" "http://www.w3.org/Graphics/SVG/1.1/DTD/svg11.dtd"><svg class="icon" width="200px" height="200.00px" viewBox="0 0 1024 1024" version="1.1" xmlns="http://www.w3.org/2000/svg"><path d="M794.57 382.89c-12.43 0-22.5-10.07-22.5-22.5v-75.73c0-37.63-30.61-68.24-68.24-68.24H305.32c-37.63 0-68.24 30.61-68.24 68.24v75.73c0 12.43-10.07 22.5-22.5 22.5s-22.5-10.07-22.5-22.5v-75.73c0-62.44 50.8-113.24 113.24-113.24h398.51c62.44 0 113.24 50.8 113.24 113.24v75.73c0 12.43-10.07 22.5-22.5 22.5zM703.83 795.96H305.32c-62.44 0-113.24-50.8-113.24-113.24v-75.65c0-12.43 10.07-22.5 22.5-22.5s22.5 10.07 22.5 22.5v75.65c0 37.63 30.61 68.24 68.24 68.24h398.51c37.63 0 68.24-30.61 68.24-68.24v-75.65c0-12.43 10.07-22.5 22.5-22.5s22.5 10.07 22.5 22.5v75.65c0 62.44-50.8 113.24-113.24 113.24zM834.28 512.03H174.87c-12.43 0-22.5-10.07-22.5-22.5s10.07-22.5 22.5-22.5h659.41c12.43 0 22.5 10.07 22.5 22.5s-10.07 22.5-22.5 22.5z" fill="#333333" /></svg>