<?xml version="1.0" standalone="no"?><!DOCTYPE svg PUBLIC "-//W3C//DTD SVG 1.1//EN" "http://www.w3.org/Graphics/SVG/1.1/DTD/svg11.dtd"><svg class="icon" width="200px" height="200.00px" viewBox="0 0 1024 1024" version="1.1" xmlns="http://www.w3.org/2000/svg"><path d="M465.87904 194.56a271.31904 271.31904 0 1 0 0 542.59712 271.31904 271.31904 0 0 0 0-542.59712z m0 66.7648a204.51328 204.51328 0 1 1 0 409.06752 204.51328 204.51328 0 0 1 0-409.06752zM685.95712 710.00064a33.3824 33.3824 0 0 1 43.4176-3.4816l3.80928 3.19488 104.8576 103.71072a33.3824 33.3824 0 0 1-43.17184 50.70848l-3.76832-3.23584-104.8576-103.66976a33.3824 33.3824 0 0 1-0.28672-47.22688z" fill="#000000" /></svg>