<?xml version="1.0" standalone="no"?><!DOCTYPE svg PUBLIC "-//W3C//DTD SVG 1.1//EN" "http://www.w3.org/Graphics/SVG/1.1/DTD/svg11.dtd"><svg class="icon" width="200px" height="200.00px" viewBox="0 0 1024 1024" version="1.1" xmlns="http://www.w3.org/2000/svg"><path d="M331.68 446.976a47.776 47.776 0 0 1 0 95.552 47.744 47.744 0 0 1 0-95.552z m131.904 191.36c133.984 0 253.984-55.744 335.904-143.584-81.92-87.84-201.92-143.552-335.904-143.552-134.048 0-335.872 73.088-335.872 143.552 0 75.52 201.824 143.584 335.872 143.584zM952.48 287.84c0 81.28-22.08 157.216-60.128 222.816a443.2 443.2 0 0 1 60.16 222.88 31.808 31.808 0 1 1-63.68 0c0-65.696-17.44-130.592-50.208-188.192-96.736 99.488-232.608 156.672-375.04 156.672C324.16 702.016 64 630.848 64 494.72c0-134.112 264-207.2 399.584-207.2 145.952 0 285.312 59.68 382.432 163.776l3.2 3.392c25.472-52.16 39.584-109.12 39.584-166.88a31.872 31.872 0 0 1 63.68 0z" fill="#333333" /></svg>