<?xml version="1.0" standalone="no"?><!DOCTYPE svg PUBLIC "-//W3C//DTD SVG 1.1//EN" "http://www.w3.org/Graphics/SVG/1.1/DTD/svg11.dtd"><svg class="icon" width="200px" height="200.00px" viewBox="0 0 1024 1024" version="1.1" xmlns="http://www.w3.org/2000/svg"><path d="M94.133248 636.412928c-16.631808 0-30.133248 11.16672-30.133248 24.906752 0 13.740032 13.502464 24.905728 30.133248 24.905728l461.661184 0c-11.879424 17.778688-18.88768 39.200768-18.88768 62.205952 0 61.850624 50.12992 112.02048 111.97952 112.02048 61.851648 0 112.019456-50.169856 112.019456-112.02048 0-61.8496-50.168832-112.019456-112.019456-112.019456-3.801088 0-7.602176 0.277504-11.324416 0.633856-2.05824-0.356352-4.15744-0.633856-6.335488-0.633856L94.133248 636.411904 94.133248 636.412928zM94.529536 487.093248C70.651904 487.093248 64 498.221056 64 512c0 13.740032 6.651904 24.866816 30.529536 24.866816L817.21344 536.866816c4.831232 0 9.423872-0.396288 13.740032-1.227776 5.582848 0.831488 11.285504 1.227776 17.065984 1.227776 61.850624 0 111.980544-50.128896 111.980544-111.97952 0-61.889536-50.12992-112.02048-111.980544-112.02048-61.8496 0-112.019456 50.130944-112.019456 112.02048 0 23.006208 6.889472 44.388352 18.808832 62.205952L94.529536 487.093248 94.529536 487.093248zM88.866816 337.773568c-13.740032 0-24.866816 11.126784-24.866816 24.866816 0 13.740032 11.126784 24.905728 24.866816 24.905728l398.266368 0c1.34656 0 2.653184-0.197632 3.959808-0.395264 2.811904 0.236544 5.623808 0.395264 8.4736 0.395264 61.851648 0 111.980544-50.168832 111.980544-112.019456 0-61.8496-50.128896-111.97952-111.980544-111.97952-61.8496 0-112.019456 50.12992-112.019456 111.97952 0 23.046144 7.008256 44.428288 18.926592 62.246912L88.866816 337.773568 88.866816 337.773568z" /></svg>