<?xml version="1.0" standalone="no"?><!DOCTYPE svg PUBLIC "-//W3C//DTD SVG 1.1//EN" "http://www.w3.org/Graphics/SVG/1.1/DTD/svg11.dtd"><svg class="icon" width="200px" height="200.00px" viewBox="0 0 1024 1024" version="1.1" xmlns="http://www.w3.org/2000/svg"><path d="M766.03392 258.048h-122.63424V211.59936c0-26.33728-22.48704-47.7184-50.13504-47.7184h-146.432c-27.648 0-50.13504 21.38112-50.13504 47.7184v46.53056H274.0224C235.97056 258.048 204.8 287.62112 204.8 323.9936c0 28.01664 18.51392 52.06016 44.52352 61.52192v393.74848C249.32352 846.47936 306.7904 901.12 377.32352 901.12h285.36832c70.57408 0 128-54.64064 128-121.81504V385.55648c26.0096-9.4208 44.52352-33.50528 44.52352-61.56288 0.08192-36.37248-30.96576-65.9456-69.18144-65.9456zM424.3456 761.6512a23.59296 23.59296 0 0 1-24.1664 23.06048 23.59296 23.59296 0 0 1-24.24832-23.06048V483.328c0-12.73856 10.81344-23.01952 24.20736-23.01952 13.43488 0 24.20736 10.24 24.20736 23.01952v278.28224z m121.69216 0a23.59296 23.59296 0 0 1-24.20736 23.06048 23.59296 23.59296 0 0 1-24.20736-23.06048V483.328c0-12.73856 10.81344-23.01952 24.1664-23.01952 13.43488 0 24.24832 10.24 24.24832 23.01952v278.28224z m121.77408 0a23.59296 23.59296 0 0 1-24.20736 23.06048 23.59296 23.59296 0 0 1-24.24832-23.06048V483.328c0-12.73856 10.81344-23.01952 24.24832-23.01952 13.39392 0 24.1664 10.24 24.1664 23.01952v278.28224z" fill="#000000" /></svg>