<?xml version="1.0" standalone="no"?><!DOCTYPE svg PUBLIC "-//W3C//DTD SVG 1.1//EN" "http://www.w3.org/Graphics/SVG/1.1/DTD/svg11.dtd"><svg class="icon" width="200px" height="200.00px" viewBox="0 0 1024 1024" version="1.1" xmlns="http://www.w3.org/2000/svg"><path d="M336.457143 804.571429h-128v73.142857h128v-73.142857zM811.885714 804.571429h-128v73.142857h128v-73.142857zM548.571429 0h-73.142858v128h73.142858V0zM365.714286 91.428571h-73.142857v128h73.142857V91.428571zM731.428571 91.428571h-73.142857v128h73.142857V91.428571zM896 329.142857h-62.171429l-14.628571-62.171428c-3.657143-16.457143-18.285714-29.257143-36.571429-29.257143h-548.571428c-16.457143 0-31.085714 12.8-36.571429 29.257143L182.857143 329.142857H124.342857v128h31.085714l-31.085714 138.971429V932.571429c0 20.114286 16.457143 36.571429 36.571429 36.571428h54.857143v54.857143h73.142857v-54.857143h438.857143v54.857143h73.142857v-54.857143h54.857143c20.114286 0 36.571429-16.457143 36.571428-36.571428V603.428571v-7.314285L861.257143 457.142857h32.914286v-128h1.828571z m-629.028571-18.285714h490.057142l56.685715 256h-603.428572l56.685715-256zM822.857143 896H201.142857V640h621.714286v256z" /></svg>