<?xml version="1.0" standalone="no"?><!DOCTYPE svg PUBLIC "-//W3C//DTD SVG 1.1//EN" "http://www.w3.org/Graphics/SVG/1.1/DTD/svg11.dtd"><svg class="icon" width="200px" height="200.00px" viewBox="0 0 1024 1024" version="1.1" xmlns="http://www.w3.org/2000/svg"><path d="M939.470688 279.530805c0-51.834585-20.185246-100.568175-56.840936-137.220668-36.652493-36.652493-85.386082-56.837738-137.220667-56.837738s-100.568175 20.185246-137.223864 56.837738l-234.892448 234.892448-0.009591 0.006394-0.006394 0.009591-232.852824 232.852823c-36.652493 36.652493-56.840935 85.386082-56.840935 137.220668s20.185246 100.568175 56.840935 137.220667c36.652493 36.652493 85.382885 56.837738 137.220668 56.837739s100.568175-20.185246 137.223864-56.837739l232.84643-232.84643 0.015985-0.015984 0.015984-0.015985 234.882857-234.882857c36.65569-36.652493 56.840935-85.382885 56.840936-137.220667zM383.222353 852.869782c-28.199881 28.199881-65.696357 43.730436-105.577721 43.730437-39.881365 0-77.374643-15.530555-105.571328-43.730437-28.199881-28.199881-43.730436-65.69316-43.730436-105.574524s15.530555-77.374643 43.730436-105.574525l217.037745-217.037745 211.149049 211.14905-217.037745 217.037744z m248.683888-248.687084l-211.14905-211.149049 219.077369-219.077369c28.196684-28.199881 65.69316-43.730436 105.571328-43.730436s77.374643 15.530555 105.571328 43.730436c28.199881 28.199881 43.733633 65.69316 43.733633 105.574525s-15.530555 77.374643-43.733633 105.574524l-219.070975 219.077369z" fill="#009FE8" /><path d="M613.933252 251.836034l-94.104037 94.10084a22.378321 22.378321 0 1 0 31.642946 31.646142l94.104037-94.100839a22.378321 22.378321 0 1 0-31.642946-31.646143zM783.254023 188.230452a133.195767 133.195767 0 0 0-78.758903-2.407268 22.378321 22.378321 0 0 0 11.866904 43.154993 88.55741 88.55741 0 0 1 52.390847 1.598452 22.387912 22.387912 0 0 0 28.423664-13.922513 22.381518 22.381518 0 0 0-13.922512-28.423664z" fill="#009FE8" /></svg>