<?xml version="1.0" standalone="no"?><!DOCTYPE svg PUBLIC "-//W3C//DTD SVG 1.1//EN" "http://www.w3.org/Graphics/SVG/1.1/DTD/svg11.dtd"><svg class="icon" width="200px" height="200.00px" viewBox="0 0 1024 1024" version="1.1" xmlns="http://www.w3.org/2000/svg"><path d="M448.8704 168.6528s-270.592 13.056-349.0304 360.8064c40.4992-22.2208 168.6528-49.664 254.9248 0 15.6672-130.7648 94.1056-360.8064 94.1056-360.8064zM580.9152 168.6528s270.592 13.056 349.0304 360.8064c-40.4992-22.2208-168.6528-49.664-254.9248 0-15.6672-130.7648-94.1056-360.8064-94.1056-360.8064z" fill="#CAE2FF" /><path d="M879.4624 297.3696c-55.7568-77.0048-158.3104-167.936-334.08-177.5104v-33.8944c0-16.9472-13.7728-30.72-30.72-30.72s-30.72 13.7728-30.72 30.72v34.048c-116.4288 7.0144-218.0608 53.9136-295.2704 136.8576-101.3248 108.8-136.3968 251.8016-132.6592 304.1792a30.74048 30.74048 0 0 0 18.688 26.0608c10.5984 4.5056 22.9376 2.6112 31.7952-4.8128 4.8128-4.0448 119.5008-97.8944 248.7808 0.7168 1.4336 1.1264 2.9696 2.0992 4.5568 2.9696 1.4336 0.768 2.9184 1.4336 4.5056 1.9456 0.1024 0.0512 0.1536 0.0512 0.256 0.1024 2.8672 0.9216 5.888 1.4848 9.0624 1.536 0.2048 0 0.4096 0.0512 0.6144 0.0512 0.2048 0 0.3584-0.0512 0.5632-0.0512h0.768c1.0752-0.0512 2.0992-0.1536 3.1744-0.3072H378.88c0.7168-0.1024 1.4336-0.256 2.1504-0.4608l0.768-0.1536c0.5632-0.1536 1.0752-0.3072 1.5872-0.4608 0.4608-0.1536 0.9216-0.256 1.3312-0.4096 0.4608-0.1536 0.8704-0.3584 1.28-0.512 0.512-0.2048 1.024-0.4096 1.536-0.6656 0.4096-0.2048 0.8192-0.4608 1.2288-0.6656l1.3824-0.768c0.4608-0.256 0.8704-0.5632 1.28-0.8704 0.4096-0.256 0.768-0.512 1.1776-0.8192 0.4608-0.3584 0.8704-0.7168 1.3312-1.0752l0.9728-0.8192 1.2288-1.2288c0.3072-0.3072 0.6144-0.6144 0.8704-0.9216 0.3584-0.4096 0.7168-0.8704 1.0752-1.28 0.3072-0.3584 0.5632-0.7168 0.8192-1.0752 0.1024-0.1536 0.2048-0.256 0.3072-0.4096 18.944-26.5728 51.7632-44.3392 90.624-49.8688v356.7616c0 12.5952-10.24 22.8864-22.8864 22.8864s-22.8864-10.24-22.8864-22.8864v-5.2224c0-16.9472-13.7728-30.72-30.72-30.72s-30.72 13.7728-30.72 30.72v5.2224c0 46.4896 37.8368 84.3264 84.3264 84.3264s84.3264-37.8368 84.3264-84.3264v-355.2768c35.9936 6.912 66.6624 24.1664 84.2752 48.4864 0.6144 0.8704 1.3312 1.6896 2.048 2.5088l0.768 0.768c0.512 0.512 0.9728 1.024 1.4848 1.4848 0.3072 0.256 0.6144 0.5632 0.9216 0.8192 0.512 0.4608 1.0752 0.8704 1.5872 1.2288 0.3072 0.2048 0.6144 0.4608 0.9216 0.6656 0.6656 0.4608 1.3312 0.8704 2.048 1.2288 0.2048 0.1024 0.4608 0.256 0.6656 0.4096 1.8944 1.024 3.9424 1.8432 6.0416 2.4064 0.256 0.0512 0.512 0.1536 0.8192 0.2048 0.768 0.2048 1.536 0.3584 2.3552 0.512l1.1264 0.1536c0.7168 0.1024 1.3824 0.1536 2.0992 0.2048 0.256 0 0.4608 0.0512 0.7168 0.0512h0.512c0.256 0 0.512 0.0512 0.768 0.0512 0.512 0 1.024 0 1.536-0.0512 0.2048 0 0.4096-0.0512 0.6144-0.0512h0.256c3.4816-0.256 6.7584-1.1264 9.8304-2.4064 0 0 0.0512 0 0.0512-0.0512 1.024-0.4608 1.9456-0.9216 2.9184-1.4336 0.0512-0.0512 0.1536-0.0512 0.2048-0.1024 0.9216-0.5632 1.8432-1.1264 2.7136-1.792 0.0512-0.0512 0.1024-0.0512 0.1024-0.1024 0.9216-0.6656 1.792-1.3824 2.6112-2.1504l0.4096-0.4096c0.6656-0.6144 1.28-1.2288 1.8432-1.9456 0.0512-0.1024 0.1536-0.1536 0.2048-0.256 55.552-64.6144 178.0224-57.088 239.3088-5.632a30.74048 30.74048 0 0 0 33.3312 4.0448 30.64832 30.64832 0 0 0 17.1008-28.8768c-1.8944-47.6672-24.0128-154.3168-94.0032-250.88z m-754.176 202.24c13.9776-55.3984 47.2064-135.2192 108.3392-200.9088 53.7088-57.6512 119.04-94.3616 194.8672-109.824C361.3184 279.552 346.5216 424.1408 343.7568 503.6032c-38.8096-19.2512-76.8512-26.7776-112.1792-26.7776-39.936 0-76.3392 9.6256-106.2912 22.784z m395.8272-35.9936h-0.6656c-1.4848 0-2.9184-0.1024-4.4032-0.1024h-0.9216c-40.3456 0.1536-78.1312 9.984-109.4656 27.648 5.2224-100.3008 30.1056-248.6272 108.544-301.4144 90.7776 61.3376 106.24 187.2384 112.384 300.3904-30.4128-16.384-66.6624-25.7536-105.472-26.5216z m167.3728 33.9968c-5.12-102.5536-16.896-224.8192-85.7088-309.1968 94.0544 18.0736 170.1888 66.56 226.9696 144.9472 39.2704 54.2208 61.3376 112.2816 72.6016 157.184-66.7648-26.9312-149.9648-27.8016-213.8624 7.0656z" fill="#5866D2" /></svg>