<?xml version="1.0" standalone="no"?><!DOCTYPE svg PUBLIC "-//W3C//DTD SVG 1.1//EN" "http://www.w3.org/Graphics/SVG/1.1/DTD/svg11.dtd"><svg class="icon" width="200px" height="200.00px" viewBox="0 0 1024 1024" version="1.1" xmlns="http://www.w3.org/2000/svg"><path d="M128 149.333333h42.666667v725.333334H128zM384 149.333333h42.666667v725.333334h-42.666667zM256 277.333333h42.666667v170.666667h-42.666667zM256 576h42.666667v170.666667h-42.666667zM792.96 170.666667L853.333333 231.04v561.92L792.96 853.333333h-177.92L554.666667 792.96V231.04L615.04 170.666667h177.92M810.666667 128H597.333333l-85.333333 85.333333v597.333334l85.333333 85.333333h213.333334l85.333333-85.333333V213.333333l-85.333333-85.333333zM704 298.666667a21.333333 21.333333 0 1 1-21.333333 21.333333 21.333333 21.333333 0 0 1 21.333333-21.333333m0-42.666667a64 64 0 1 0 64 64 64 64 0 0 0-64-64zM704 490.666667a21.333333 21.333333 0 1 1-21.333333 21.333333 21.333333 21.333333 0 0 1 21.333333-21.333333m0-42.666667a64 64 0 1 0 64 64 64 64 0 0 0-64-64zM704 682.666667a21.333333 21.333333 0 1 1-21.333333 21.333333 21.333333 21.333333 0 0 1 21.333333-21.333333m0-42.666667a64 64 0 1 0 64 64 64 64 0 0 0-64-64z" /></svg>